C:\GBW_MyPrograms\KinderuniversiteitApp\Resultaten\Ellis\Jullie_v1.mot
version=1
nRows=15
nColumns=31
inDegrees=yes
endheader
                time	         pelvis_tilt	           pelvis_tx	           pelvis_ty	       hip_flexion_r	        knee_angle_r	       ankle_angle_r	       hip_flexion_l	        knee_angle_l	       ankle_angle_l	    lumbar_extension	          arm_flex_r	          arm_flex_l	hamstrings_r/activation	bifemsh_r/activation	glut_max_r/activation	iliopsoas_r/activation	rect_fem_r/activation	  vasti_r/activation	gastroc_r/activation	 soleus_r/activation	tib_ant_r/activation	hamstrings_l/activation	bifemsh_l/activation	glut_max_l/activation	iliopsoas_l/activation	rect_fem_l/activation	  vasti_l/activation	gastroc_l/activation	 soleus_l/activation	tib_ant_l/activation	
          0.00000000	         -1.25766598	          0.00000000	          1.02177512	         13.69359789	        -26.52753583	          6.66717801	         27.07165899	        -53.61006012	         -3.06087561	         -3.32178971	         -3.60859732	         -3.60861367	          0.52176299	          0.63960650	          0.50628241	          0.64588045	          0.58533873	          0.43150289	          0.05572418	          0.05574711	          0.94123021	          0.15863202	          0.64399356	          0.25833884	          0.75033270	          0.70799743	          0.41014836	          0.19115609	          0.06292523	          0.88318814	
          0.00692819	         -1.28553307	          0.00905965	          1.01569464	         12.95777161	        -25.94965977	          8.31374438	         27.75010491	        -52.95521874	         -1.60495473	         -3.30244739	         -3.59411201	         -3.59412730	          0.48886899	          0.64126757	          0.53069664	          0.59572325	          0.59766153	          0.47946359	          0.05022220	          0.05007668	          0.89219291	          0.14885778	          0.64430166	          0.26160363	          0.74679274	          0.70106762	          0.39051497	          0.17190605	          0.05716961	          0.89154848	
          0.01385638	         -1.30979910	          0.01816928	          1.00920421	         12.20118136	        -25.62433627	         10.25083447	         28.37631168	        -52.10898330	         -0.14363984	         -3.28173759	         -3.58595603	         -3.58597043	          0.45027907	          0.59513562	          0.58479795	          0.53933611	          0.64563591	          0.60707760	          0.07666060	          0.08207208	          0.80043804	          0.13650700	          0.64341201	          0.25664723	          0.76887194	          0.70728031	          0.36702002	          0.15463128	          0.05321582	          0.89516717	
          0.02078458	         -1.33020616	          0.02734851	          1.00243859	         11.38543633	        -25.45189213	         12.56231748	         28.95358155	        -51.09191915	          1.26216312	         -3.25795747	         -3.58690292	         -3.58691614	          0.41476498	          0.56398079	          0.69320089	          0.48618254	          0.69451819	          0.68109783	          0.12046473	          0.11719620	          0.71821443	          0.13424501	          0.65278103	          0.25094909	          0.77640948	          0.70521319	          0.33956035	          0.13913902	          0.05241236	          0.89195547	
          0.02771277	         -1.34038110	          0.03649194	          0.99584514	         10.70900177	        -25.52492769	         14.49351806	         29.46678611	        -49.87720337	          2.47802995	         -3.25148056	         -3.58093511	         -3.58094727	          0.37335283	          0.51601423	          0.68555709	          0.44275871	          0.77664618	          0.77955249	          0.14034661	          0.14184185	          0.64448055	          0.12215072	          0.67093029	          0.23424348	          0.83031292	          0.74308541	          0.31142161	          0.12525283	          0.05143147	          0.89609435	
          0.03464096	         -1.35165151	          0.04546480	          0.98992990	         10.52327081	        -26.39687604	         15.97625176	         29.92028844	        -48.45306364	          3.53683300	         -3.26541499	         -3.55184200	         -3.55185291	          0.33646459	          0.49997626	          0.67739742	          0.53900007	          0.79955713	          0.84791601	          0.19980502	          0.22132155	          0.57834466	          0.11068593	          0.69752186	          0.21414037	          0.81609155	          0.73188431	          0.29771642	          0.11295972	          0.05046575	          0.88609124	
          0.04156915	         -1.38521333	          0.05439207	          0.98476848	         10.69803902	        -27.81605096	         17.08230326	         30.34668515	        -46.93260413	          4.52278792	         -3.26077163	         -3.52198822	         -3.52199783	          0.30337448	          0.47622388	          0.67633491	          0.55201143	          0.83842361	          0.89473382	          0.25559536	          0.29278852	          0.51902332	          0.10877460	          0.67297879	          0.24409268	          0.80589751	          0.73641623	          0.29843846	          0.10357543	          0.05376476	          0.80825320	
          0.04849734	         -1.42524907	          0.06347587	          0.98031963	         10.89597057	        -29.24204247	         17.90715004	         30.73040216	        -45.44238587	          5.24711576	         -3.23291488	         -3.51641502	         -3.51642334	          0.27454537	          0.46313386	          0.68006545	          0.53749342	          0.84706601	          0.92619266	          0.30491240	          0.33450575	          0.46581043	          0.11563166	          0.64848222	          0.26132147	          0.74922779	          0.72452582	          0.38999425	          0.09496914	          0.06207555	          0.72619914	
          0.05542553	         -1.46039046	          0.07283191	          0.97657772	         10.94133198	        -30.40738302	         18.53492861	         31.03770588	        -44.04903513	          5.56279564	         -3.18192486	         -3.54886833	         -3.54887513	          0.24943085	          0.45188231	          0.65986923	          0.55205561	          0.86415746	          0.94540062	          0.35289688	          0.37598330	          0.41806364	          0.12515537	          0.60802894	          0.32772234	          0.69915859	          0.72337322	          0.46622547	          0.08697749	          0.06174988	          0.65208302	
          0.06235373	         -1.48908749	          0.08251455	          0.97355230	         10.79251440	        -31.24977249	         18.99103538	         31.23454635	        -42.87841635	          5.58507865	         -3.10335186	         -3.62652032	         -3.62652581	          0.23018890	          0.44699370	          0.62802213	          0.56260164	          0.86484074	          0.95175798	          0.40147346	          0.41658834	          0.37520358	          0.13974333	          0.56778714	          0.43317568	          0.64224116	          0.72146499	          0.53968493	          0.08036271	          0.08365144	          0.58534019	
          0.06928192	         -1.51105724	          0.09254763	          0.97125861	         10.45123550	        -31.77304321	         19.27233069	         31.29394633	        -42.14425631	          5.44691631	         -2.99466506	         -3.75246568	         -3.75246954	          0.22792941	          0.44848187	          0.60500921	          0.56648962	          0.84681563	          0.92730396	          0.45173832	          0.45384234	          0.33671925	          0.15516668	          0.52286289	          0.53375163	          0.58054104	          0.71746492	          0.62423868	          0.07752657	          0.12462479	          0.52531216	
          0.07621011	         -1.52400348	          0.10293883	          0.96972421	          9.92470601	        -31.99143409	         19.36721301	         31.16315694	        -41.91562198	          5.44683906	         -2.85745139	         -3.92703918	         -3.92704166	          0.26740442	          0.46763686	          0.56496614	          0.54369001	          0.80603376	          0.84922137	          0.50230019	          0.48272746	          0.30220245	          0.22425000	          0.48550361	          0.58926278	          0.52372054	          0.70432669	          0.70833404	          0.11237999	          0.17418703	          0.47137355	
          0.08313830	         -1.52310482	          0.11367156	          0.96897788	          9.22401386	        -31.92728913	         19.25692353	         30.75473638	        -41.95330197	          5.67225902	         -2.69891598	         -4.14657374	         -4.14657457	          0.27070797	          0.47904309	          0.57711336	          0.52505045	          0.78731616	          0.76804905	          0.55991082	          0.53469520	          0.27117944	          0.26018704	          0.46050929	          0.64848718	          0.47309181	          0.72940666	          0.76306655	          0.14494182	          0.19891817	          0.42293121	
          0.09006649	         -1.51289463	          0.12471216	          0.96902256	          8.36405221	        -31.58673001	         18.91029837	         29.99409370	        -41.84728775	          6.21801278	         -2.51707716	         -4.40700957	         -4.40700895	          0.27694833	          0.45527663	          0.58825443	          0.47264906	          0.80129348	          0.75180279	          0.64720187	          0.63747521	          0.24331512	          0.29745500	          0.44006461	          0.66830360	          0.42569755	          0.71086819	          0.82925437	          0.21309617	          0.33389725	          0.37941134	
          0.09699468	         -1.50467892	          0.13600458	          0.96986083	          7.35207042	        -30.94560589	         18.29148907	         28.86821906	        -41.18083745	          6.75288315	         -2.30444510	         -4.70258934	         -4.70258714	          0.27934890	          0.41335350	          0.58458889	          0.42572748	          0.81415899	          0.67564646	          0.74047278	          0.72085140	          0.21829128	          0.31646230	          0.40277116	          0.68953745	          0.38301610	          0.72036307	          0.78816600	          0.33804285	          0.53880325	          0.34032333	
